<svg viewBox="0 0 64 64" xmlns="http://www.w3.org/2000/svg" role="img" aria-labelledby="t">
  <title id="t">Alembic Index mark</title>
  <g fill="none" stroke="#7A4B3A" stroke-width="3.2" stroke-linecap="round" stroke-linejoin="round">
    <circle cx="37" cy="41" r="15" fill="#F4F1EA"/>
    <path d="M23 38 Q37 47 51 38 A15 15 0 0 1 23 38 Z" fill="#C67B5C" fill-opacity=".55" stroke="none"/>
    <path d="M30 27 L31 19 L43 19 L44 27"/>
    <path d="M31 19 C25 16,23 10,29 6 C32 4,34 3.5,37 3 C40 3.5,42 4,45 6 C51 10,49 16,43 19 Z" stroke="#B87333"/>
    <circle cx="37" cy="2.6" r="1.6" fill="#B87333" stroke="none"/>
    <path d="M28.5 9 C16 10,10 18,10 30" stroke="#B87333" stroke-width="3"/>
    <circle cx="10" cy="35" r="2.4" fill="#C67B5C" stroke="none"/>
  </g>
</svg>
